<?xml version="1.0" encoding="UTF-8" standalone="no"?>
<!-- Generator: Gravit.io -->
<svg xmlns="http://www.w3.org/2000/svg" xmlns:xlink="http://www.w3.org/1999/xlink" style="isolation:isolate" viewBox="0 0 512 512" width="512pt" height="512pt"><defs><clipPath id="_clipPath_bBQpslGZSBGCyMfuTHPEH9Vv9dpyu3nU"><rect width="512" height="512"/></clipPath></defs><g clip-path="url(#_clipPath_bBQpslGZSBGCyMfuTHPEH9Vv9dpyu3nU)"><path d=" M 326.7 451.7 C 304.7 459.6 280.8 464 256 464 C 231.2 464 207.3 459.6 185.3 451.7 C 184.1 451.6 184.7 451.5 184.5 451.4 C 154.4 440.4 127.6 422.6 105.9 400 C 70.04 362.6 48 311.9 48 256 C 48 141.12 141.1 48 256 48 C 370.9 48 464 141.12 464 256 C 464 311.9 441.1 362.6 406.1 400 C 405.1 401 404.1 402.1 403.1 403.1 C 381.7 424.4 355.7 441.2 326.7 451.7 L 326.7 451.7 Z  M 235.9 159.1 L 235.9 166 C 230.3 167.2 224.1 168.9 220 171.1 C 205.1 177.9 192.1 190.5 188.9 208.8 C 187.1 219 188.1 228.9 192.3 237.8 C 196.5 246.6 203 252.8 209.6 257.3 C 221.2 265.2 236.5 269.8 248.2 273.3 L 250.4 273.9 C 264.4 278.2 273.8 281.3 279.7 285.6 C 282.2 287.4 283.1 288.8 283.4 289.7 C 283.8 290.5 284.4 292.3 283.7 296.3 C 283.1 299.8 281.2 302.8 275.7 305.1 C 269.6 307.7 259.7 309 246.9 307 C 240.9 306 230.2 302.4 220.7 299.2 C 218.5 298.4 216.3 297.7 214.3 297 C 203.8 293.5 192.5 299.2 189 309.7 C 185.5 320.2 191.2 331.5 201.7 334.1 C 202.9 335.4 204.4 335.9 206.1 336.5 C 213.1 339.2 226.4 343.4 235.9 345.6 L 235.9 352 C 235.9 363.1 244.9 372.1 255.1 372.1 C 267.1 372.1 276.1 363.1 276.1 352 L 276.1 346.5 C 281.4 345.5 286.6 343.1 291.4 341.9 C 307.2 335.2 319.8 322.2 323.1 303.2 C 324.9 292.8 324.1 282.8 320.1 273.7 C 316.2 264.7 309.9 258.1 303.2 253.3 C 291.1 244.4 274.9 239.6 262.8 235.9 L 261.1 235.7 C 247.8 231.4 238.2 228.4 232.1 224.2 C 229.5 222.4 228.7 221.2 228.5 220.7 C 228.3 220.3 227.7 219.1 228.3 215.7 C 228.7 213.7 230.2 210.4 236.5 207.6 C 242.1 204.7 252.9 203.1 265.1 204.1 C 269.5 205.7 283 208.3 286.9 209.3 C 297.5 212.2 308.5 205.8 311.3 195.1 C 314.2 184.5 307.8 173.5 297.1 170.7 C 292.7 169.5 282.7 167.5 276.1 166.3 L 276.1 160 C 276.1 148.9 267.1 139.9 256 139.9 C 244.9 139.9 235.9 148.9 235.9 160 L 235.9 159.1 Z  M 48 560" fill="rgb(0,0,0)"/></g></svg>