<?xml version="1.0" encoding="UTF-8" standalone="no"?>
<!-- Generator: Gravit.io -->
<svg xmlns="http://www.w3.org/2000/svg" xmlns:xlink="http://www.w3.org/1999/xlink" style="isolation:isolate" viewBox="0 0 512 512" width="512pt" height="512pt"><defs><clipPath id="_clipPath_WWPBkg609Oq5UDb6lXHyIayhyGR9emsi"><rect width="512" height="512"/></clipPath></defs><g clip-path="url(#_clipPath_WWPBkg609Oq5UDb6lXHyIayhyGR9emsi)"><path d=" M 218.955 437.888 C 267.536 437.878 314.716 421.615 352.984 391.69 L 473.3 512 L 512 473.302 L 391.684 352.992 C 421.626 314.722 437.899 267.534 437.911 218.944 C 437.911 98.224 339.682 0 218.955 0 C 98.229 0 0 98.224 0 218.944 C 0 339.664 98.229 437.888 218.955 437.888 Z  M 218.955 54.736 C 309.521 54.736 383.172 128.383 383.172 218.944 C 383.172 309.504 309.521 383.152 218.955 383.152 C 128.39 383.152 54.739 309.504 54.739 218.944 C 54.739 128.383 128.39 54.736 218.955 54.736 Z " fill="rgb(0,0,0)"/></g></svg>